# Blender v2.79 (sub 0) OBJ File: 'container.blend'
# www.blender.org
mtllib container.mtl
o Cube.001_Cube.009
v 1.183625 -1.257906 -2.941100
v 1.183625 -1.257906 2.941100
v -1.183625 -1.257906 2.941099
v -1.183625 -1.257906 -2.941101
v 1.183626 1.257906 -2.941098
v 1.183625 1.257906 2.941102
v -1.183626 1.257906 2.941099
v -1.183625 1.257906 -2.941100
v 0.521353 -1.257906 -2.941100
v -0.521352 -1.257906 -2.941101
v 0.521353 -1.257906 2.941100
v -0.521353 -1.257906 2.941099
v 0.521353 1.257906 -2.941099
v -0.521353 1.257906 -2.941099
v 0.521352 1.257906 2.941101
v -0.521354 1.257906 2.941100
v 1.183625 -0.861079 -2.941099
v 1.183625 0.861079 -2.941099
v 1.183625 -0.861079 2.941101
v 1.183625 0.861079 2.941101
v -1.183625 -0.861079 2.941099
v -1.183625 0.861079 2.941099
v -1.183625 -0.861079 -2.941101
v -1.183625 0.861079 -2.941100
v 0.521353 -0.861079 -2.941100
v 0.521353 0.861079 -2.941099
v -0.521352 -0.861079 -2.941100
v -0.521352 0.861079 -2.941100
v 0.521352 0.861079 2.941100
v 0.521352 -0.861079 2.941100
v -0.521353 0.861079 2.941100
v -0.521353 -0.861079 2.941100
v 0.399163 -1.257906 -2.941100
v -0.399161 -1.257906 -2.941101
v 0.399162 -1.257906 2.941100
v -0.399163 -1.257906 2.941099
v 0.399163 1.257906 -2.941099
v -0.399162 1.257906 -2.941099
v 0.399160 1.257906 2.941100
v -0.399164 1.257906 2.941100
v 0.399162 -0.970343 2.941100
v -0.399163 -0.970343 2.941099
v 0.399161 0.970343 2.941100
v -0.399164 0.970343 2.941100
v 0.399163 0.861079 -2.941100
v -0.399162 0.861079 -2.941100
v 0.399163 -0.861079 -2.941100
v -0.399161 -0.861079 -2.941100
vt 0.586118 0.011051
vt 0.523301 0.011051
vt 0.523301 0.680517
vt 0.586118 0.680517
vt 0.829072 0.680517
vt 0.829072 0.011051
vt 0.766255 0.011051
vt 0.766255 0.680517
vt 0.210197 0.011051
vt 0.210197 0.680517
vt 0.247836 0.680517
vt 0.247836 0.011051
vt 0.170928 0.747783
vt 0.233745 0.747783
vt 0.233745 0.702619
vt 0.170928 0.702619
vt 0.303895 0.680517
vt 0.303895 0.011051
vt 0.266255 0.011051
vt 0.266255 0.680517
vt 0.413882 0.747783
vt 0.476699 0.747783
vt 0.476699 0.702619
vt 0.413882 0.702619
vt 0.252164 0.747783
vt 0.314981 0.747783
vt 0.314981 0.702619
vt 0.252164 0.702619
vt 0.402292 0.747783
vt 0.402292 0.702619
vt 0.009210 0.747783
vt 0.072027 0.747783
vt 0.072027 0.702619
vt 0.009210 0.702619
vt 0.159338 0.735347
vt 0.159338 0.702619
vt 0.990790 0.680517
vt 0.990790 0.011051
vt 0.927973 0.011051
vt 0.927973 0.680517
vt 0.840662 0.680517
vt 0.840662 0.011051
vt 0.747836 0.011051
vt 0.685019 0.011051
vt 0.685019 0.680517
vt 0.747836 0.680517
vt 0.597708 0.011051
vt 0.597708 0.680517
vt 0.159338 0.988949
vt 0.170928 0.988949
vt 0.170928 0.943785
vt 0.159338 0.956221
vt 0.009210 0.988949
vt 0.072027 0.988949
vt 0.072027 0.943785
vt 0.009210 0.943785
vt 0.402292 0.988949
vt 0.413882 0.988949
vt 0.413882 0.943785
vt 0.402292 0.943785
vt 0.252164 0.988949
vt 0.314981 0.988949
vt 0.314981 0.943785
vt 0.252164 0.943785
vt 0.476699 0.988949
vt 0.476699 0.943785
vt 0.504881 0.680517
vt 0.504881 0.011051
vt 0.467242 0.011051
vt 0.467242 0.680517
vt 0.233745 0.988949
vt 0.233745 0.943785
vt 0.009210 0.011051
vt 0.009210 0.680517
vt 0.046849 0.680517
vt 0.046849 0.011051
vt 0.326571 0.943785
vt 0.326571 0.747783
vt 0.326571 0.988949
vt 0.083616 0.988949
vt 0.083617 0.956221
vt 0.673429 0.011051
vt 0.673429 0.680517
vt 0.916383 0.011051
vt 0.916384 0.680517
vt 0.083617 0.735347
vt 0.083617 0.702619
vt 0.326571 0.702619
vn 0.0000 1.0000 0.0000
vn 0.0000 -1.0000 -0.0000
vn -1.0000 0.0000 -0.0000
vn 0.0000 -0.0000 -1.0000
vn 1.0000 0.0000 0.0000
vn -0.0000 -0.0000 1.0000
usemtl Material
s off
f 10/1/1 4/2/1 3/3/1 12/4/1
f 14/5/2 16/6/2 7/7/2 8/8/2
f 18/9/3 20/10/3 6/11/3 5/12/3
f 31/13/4 22/14/4 7/15/4 16/16/4
f 22/17/5 24/18/5 8/19/5 7/20/5
f 27/21/6 23/22/6 4/23/6 10/24/6
f 17/25/6 25/26/6 9/27/6 1/28/6
f 48/29/6 27/21/6 10/24/6 34/30/6
f 20/31/4 29/32/4 15/33/4 6/34/4
f 44/35/4 31/13/4 16/16/4 40/36/4
f 5/37/2 6/38/2 15/39/2 13/40/2
f 38/41/2 40/42/2 16/6/2 14/5/2
f 1/43/1 9/44/1 11/45/1 2/46/1
f 34/47/1 10/1/1 12/4/1 36/48/1
f 36/49/4 12/50/4 32/51/4 42/52/4
f 2/53/4 11/54/4 30/55/4 19/56/4
f 19/56/4 30/55/4 29/32/4 20/31/4
f 38/57/6 14/58/6 28/59/6 46/60/6
f 46/60/6 28/59/6 27/21/6 48/29/6
f 5/61/6 13/62/6 26/63/6 18/64/6
f 18/64/6 26/63/6 25/26/6 17/25/6
f 14/58/6 8/65/6 24/66/6 28/59/6
f 28/59/6 24/66/6 23/22/6 27/21/6
f 3/67/5 4/68/5 23/69/5 21/70/5
f 21/70/5 23/69/5 24/18/5 22/17/5
f 12/50/4 3/71/4 21/72/4 32/51/4
f 32/51/4 21/72/4 22/14/4 31/13/4
f 1/73/3 2/74/3 19/75/3 17/76/3
f 17/76/3 19/75/3 20/10/3 18/9/3
f 26/63/6 45/77/6 47/78/6 25/26/6
f 45/77/6 46/60/6 48/29/6 47/78/6
f 13/62/6 37/79/6 45/77/6 26/63/6
f 37/79/6 38/57/6 46/60/6 45/77/6
f 11/54/4 35/80/4 41/81/4 30/55/4
f 35/80/4 36/49/4 42/52/4 41/81/4
f 9/44/1 33/82/1 35/83/1 11/45/1
f 33/82/1 34/47/1 36/48/1 35/83/1
f 13/40/2 15/39/2 39/84/2 37/85/2
f 37/85/2 39/84/2 40/42/2 38/41/2
f 29/32/4 43/86/4 39/87/4 15/33/4
f 43/86/4 44/35/4 40/36/4 39/87/4
f 25/26/6 47/78/6 33/88/6 9/27/6
f 47/78/6 48/29/6 34/30/6 33/88/6
o Cube.008
v -1.117977 -2.495926 2.928302
v -1.117977 -1.295927 2.928302
v -1.117977 -2.495926 2.848302
v -1.117977 -1.295927 2.848302
v -1.037977 -2.495926 2.928302
v -1.037977 -1.295927 2.928302
v -1.037977 -2.495926 2.848302
v -1.037977 -1.295927 2.848302
v -0.957977 -1.295927 2.848302
v -0.957977 -2.495926 2.848302
v -0.957977 -2.495926 2.928302
v -0.957977 -1.295927 2.928302
v -1.117977 -1.295927 2.768302
v -1.117977 -2.495926 2.768302
v -1.037977 -2.495926 2.768302
v -1.037977 -1.295927 2.768302
v 1.117977 -2.495926 2.928302
v 1.117977 -1.295927 2.928302
v 1.117977 -2.495926 2.848302
v 1.117977 -1.295927 2.848302
v 1.037977 -2.495926 2.928302
v 1.037977 -1.295927 2.928302
v 1.037977 -2.495926 2.848302
v 1.037977 -1.295927 2.848302
v 0.957977 -1.295927 2.848302
v 0.957977 -2.495926 2.848302
v 0.957977 -2.495926 2.928302
v 0.957977 -1.295927 2.928302
v 1.117977 -1.295927 2.768302
v 1.117977 -2.495926 2.768302
v 1.037977 -2.495926 2.768302
v 1.037977 -1.295927 2.768302
v -1.117977 -2.495926 -2.928302
v -1.117977 -1.295927 -2.928302
v -1.117977 -2.495926 -2.848302
v -1.117977 -1.295927 -2.848302
v -1.037977 -2.495926 -2.928302
v -1.037977 -1.295927 -2.928302
v -1.037977 -2.495926 -2.848302
v -1.037977 -1.295927 -2.848302
v -0.957977 -1.295927 -2.848302
v -0.957977 -2.495926 -2.848302
v -0.957977 -2.495926 -2.928302
v -0.957977 -1.295927 -2.928302
v -1.117977 -1.295927 -2.768302
v -1.117977 -2.495926 -2.768302
v -1.037977 -2.495926 -2.768302
v -1.037977 -1.295927 -2.768302
v 1.117977 -2.495926 -2.928302
v 1.117977 -1.295927 -2.928302
v 1.117977 -2.495926 -2.848302
v 1.117977 -1.295927 -2.848302
v 1.037977 -2.495926 -2.928302
v 1.037977 -1.295927 -2.928302
v 1.037977 -2.495926 -2.848302
v 1.037977 -1.295927 -2.848302
v 0.957977 -1.295927 -2.848302
v 0.957977 -2.495926 -2.848302
v 0.957977 -2.495926 -2.928302
v 0.957977 -1.295927 -2.928302
v 1.117977 -1.295927 -2.768302
v 1.117977 -2.495926 -2.768302
v 1.037977 -2.495926 -2.768302
v 1.037977 -1.295927 -2.768302
vn -1.0000 0.0000 0.0000
vn 0.0000 1.0000 0.0000
vn 0.0000 0.0000 1.0000
vn 0.0000 -1.0000 0.0000
vn 1.0000 0.0000 0.0000
vn 0.0000 0.0000 -1.0000
usemtl Material.001
s off
f 49//7 50//7 52//7 51//7
f 52//8 56//8 64//8 61//8
f 54//9 53//9 59//9 60//9
f 53//9 54//9 50//9 49//9
f 51//10 55//10 53//10 49//10
f 56//8 52//8 50//8 54//8
f 58//11 57//11 60//11 59//11
f 53//10 55//10 58//10 59//10
f 56//8 54//8 60//8 57//8
f 55//12 56//12 57//12 58//12
f 62//12 61//12 64//12 63//12
f 51//7 52//7 61//7 62//7
f 56//11 55//11 63//11 64//11
f 55//10 51//10 62//10 63//10
f 65//11 67//11 68//11 66//11
f 68//8 77//8 80//8 72//8
f 70//9 76//9 75//9 69//9
f 69//9 65//9 66//9 70//9
f 67//10 65//10 69//10 71//10
f 72//8 70//8 66//8 68//8
f 74//7 75//7 76//7 73//7
f 69//10 75//10 74//10 71//10
f 72//8 73//8 76//8 70//8
f 71//12 74//12 73//12 72//12
f 78//12 79//12 80//12 77//12
f 67//11 78//11 77//11 68//11
f 72//7 80//7 79//7 71//7
f 71//10 79//10 78//10 67//10
f 81//7 83//7 84//7 82//7
f 84//8 93//8 96//8 88//8
f 86//12 92//12 91//12 85//12
f 85//12 81//12 82//12 86//12
f 83//10 81//10 85//10 87//10
f 88//8 86//8 82//8 84//8
f 90//11 91//11 92//11 89//11
f 85//10 91//10 90//10 87//10
f 88//8 89//8 92//8 86//8
f 87//9 90//9 89//9 88//9
f 94//9 95//9 96//9 93//9
f 83//7 94//7 93//7 84//7
f 88//11 96//11 95//11 87//11
f 87//10 95//10 94//10 83//10
f 97//11 98//11 100//11 99//11
f 100//8 104//8 112//8 109//8
f 102//12 101//12 107//12 108//12
f 101//12 102//12 98//12 97//12
f 99//10 103//10 101//10 97//10
f 104//8 100//8 98//8 102//8
f 106//7 105//7 108//7 107//7
f 101//10 103//10 106//10 107//10
f 104//8 102//8 108//8 105//8
f 103//9 104//9 105//9 106//9
f 110//9 109//9 112//9 111//9
f 99//11 100//11 109//11 110//11
f 104//7 103//7 111//7 112//7
f 103//10 99//10 110//10 111//10
o Cube.004
v 1.218999 -1.295500 -3.028999
v 1.218999 -1.295500 3.028999
v -1.219000 -1.295500 3.028998
v -1.218999 -1.295500 -3.029000
v 1.219000 1.295500 -3.028997
v 1.218999 1.295500 3.029001
v -1.219000 1.295500 3.028997
v -1.218999 1.295500 -3.028999
v 0.536934 -1.295500 -3.028999
v -0.536934 -1.295500 -3.028999
v 0.536934 -1.295500 3.028998
v -0.536934 -1.295500 3.028998
v 0.536935 1.295500 -3.028998
v -0.536934 1.295500 -3.028998
v 0.536933 1.295500 3.028999
v -0.536935 1.295500 3.028998
v 1.218999 -0.886814 -3.028998
v 1.218999 0.886814 -3.028997
v 1.218999 -0.886814 3.028999
v 1.218999 0.886814 3.029000
v -1.218999 -0.886814 3.028998
v -1.218999 0.886814 3.028998
v -1.218999 -0.886814 -3.028999
v -1.218999 0.886814 -3.028999
v 0.536934 -0.886814 -3.028999
v 0.536934 0.886814 -3.028998
v -0.536934 -0.886814 -3.028999
v -0.536934 0.886814 -3.028999
v 0.536933 0.886814 3.028999
v 0.536934 -0.886814 3.028999
v -0.536935 0.886814 3.028998
v -0.536934 -0.886814 3.028998
v 0.411093 -1.295500 -3.028999
v -0.411091 -1.295500 -3.028999
v 0.411092 -1.295500 3.028998
v -0.411092 -1.295500 3.028998
v 0.411093 1.295500 -3.028998
v -0.411091 1.295500 -3.028998
v 0.411090 1.295500 3.028999
v -0.411094 1.295500 3.028999
v 0.411091 -0.999343 3.028998
v -0.411093 -0.999343 3.028998
v 0.411090 0.999343 3.028999
v -0.411093 0.999343 3.028999
v 0.411093 0.886814 -3.028998
v -0.411091 0.886814 -3.028999
v 0.411093 -0.886814 -3.028999
v -0.411091 -0.886814 -3.028999
vt 0.586118 0.011051
vt 0.586118 0.680517
vt 0.523301 0.680517
vt 0.523301 0.011051
vt 0.829072 0.680517
vt 0.766255 0.680517
vt 0.766255 0.011051
vt 0.829072 0.011051
vt 0.210197 0.011051
vt 0.247836 0.011051
vt 0.247836 0.680517
vt 0.210197 0.680517
vt 0.170928 0.747783
vt 0.170928 0.702619
vt 0.233745 0.702619
vt 0.233745 0.747783
vt 0.303895 0.680517
vt 0.266255 0.680517
vt 0.266255 0.011051
vt 0.303895 0.011051
vt 0.413882 0.747783
vt 0.413882 0.702619
vt 0.476699 0.702619
vt 0.476699 0.747783
vt 0.252164 0.747783
vt 0.252164 0.702619
vt 0.314981 0.702619
vt 0.314981 0.747783
vt 0.402292 0.747783
vt 0.402292 0.702619
vt 0.009210 0.747783
vt 0.009210 0.702619
vt 0.072027 0.702619
vt 0.072027 0.747783
vt 0.159338 0.735347
vt 0.159338 0.702619
vt 0.990790 0.680517
vt 0.927973 0.680517
vt 0.927973 0.011051
vt 0.990790 0.011051
vt 0.840662 0.680517
vt 0.840662 0.011051
vt 0.747836 0.011051
vt 0.747836 0.680517
vt 0.685019 0.680517
vt 0.685019 0.011051
vt 0.597708 0.011051
vt 0.597708 0.680517
vt 0.159338 0.988949
vt 0.159338 0.956221
vt 0.170928 0.943785
vt 0.170928 0.988949
vt 0.009210 0.988949
vt 0.009210 0.943785
vt 0.072027 0.943785
vt 0.072027 0.988949
vt 0.402292 0.988949
vt 0.402292 0.943785
vt 0.413882 0.943785
vt 0.413882 0.988949
vt 0.252164 0.988949
vt 0.252164 0.943785
vt 0.314981 0.943785
vt 0.314981 0.988949
vt 0.476699 0.943785
vt 0.476699 0.988949
vt 0.504881 0.680517
vt 0.467242 0.680517
vt 0.467242 0.011051
vt 0.504881 0.011051
vt 0.233745 0.943785
vt 0.233745 0.988949
vt 0.009210 0.011051
vt 0.046849 0.011051
vt 0.046849 0.680517
vt 0.009210 0.680517
vt 0.326571 0.747783
vt 0.326571 0.943785
vt 0.326571 0.988949
vt 0.083617 0.956221
vt 0.083616 0.988949
vt 0.673429 0.680517
vt 0.673429 0.011051
vt 0.916384 0.680517
vt 0.916383 0.011051
vt 0.083617 0.702619
vt 0.083617 0.735347
vt 0.326571 0.702619
vn 0.0000 -1.0000 -0.0000
vn 0.0000 1.0000 0.0000
vn 1.0000 -0.0000 0.0000
vn -0.0000 0.0000 1.0000
vn -1.0000 -0.0000 -0.0000
vn 0.0000 0.0000 -1.0000
usemtl Material
s off
f 122/89/13 124/90/13 115/91/13 116/92/13
f 126/93/14 120/94/14 119/95/14 128/96/14
f 130/97/15 117/98/15 118/99/15 132/100/15
f 143/101/16 128/102/16 119/103/16 134/104/16
f 134/105/17 119/106/17 120/107/17 136/108/17
f 139/109/18 122/110/18 116/111/18 135/112/18
f 129/113/18 113/114/18 121/115/18 137/116/18
f 160/117/18 146/118/18 122/110/18 139/109/18
f 132/119/16 118/120/16 127/121/16 141/122/16
f 156/123/16 152/124/16 128/102/16 143/101/16
f 117/125/14 125/126/14 127/127/14 118/128/14
f 150/129/14 126/93/14 128/96/14 152/130/14
f 113/131/13 114/132/13 123/133/13 121/134/13
f 146/135/13 148/136/13 124/90/13 122/89/13
f 148/137/16 154/138/16 144/139/16 124/140/16
f 114/141/16 131/142/16 142/143/16 123/144/16
f 131/142/16 132/119/16 141/122/16 142/143/16
f 150/145/18 158/146/18 140/147/18 126/148/18
f 158/146/18 160/117/18 139/109/18 140/147/18
f 117/149/18 130/150/18 138/151/18 125/152/18
f 130/150/18 129/113/18 137/116/18 138/151/18
f 126/148/18 140/147/18 136/153/18 120/154/18
f 140/147/18 139/109/18 135/112/18 136/153/18
f 115/155/17 133/156/17 135/157/17 116/158/17
f 133/156/17 134/105/17 136/108/17 135/157/17
f 124/140/16 144/139/16 133/159/16 115/160/16
f 144/139/16 143/101/16 134/104/16 133/159/16
f 113/161/15 129/162/15 131/163/15 114/164/15
f 129/162/15 130/97/15 132/100/15 131/163/15
f 138/151/18 137/116/18 159/165/18 157/166/18
f 157/166/18 159/165/18 160/117/18 158/146/18
f 125/152/18 138/151/18 157/166/18 149/167/18
f 149/167/18 157/166/18 158/146/18 150/145/18
f 123/144/16 142/143/16 153/168/16 147/169/16
f 147/169/16 153/168/16 154/138/16 148/137/16
f 121/134/13 123/133/13 147/170/13 145/171/13
f 145/171/13 147/170/13 148/136/13 146/135/13
f 125/126/14 149/172/14 151/173/14 127/127/14
f 149/172/14 150/129/14 152/130/14 151/173/14
f 141/122/16 127/121/16 151/174/16 155/175/16
f 155/175/16 151/174/16 152/124/16 156/123/16
f 137/116/18 121/115/18 145/176/18 159/165/18
f 159/165/18 145/176/18 146/118/18 160/117/18
o Cube.003
v -0.537409 -0.884823 3.098668
v -0.537409 0.884823 3.098668
v -0.537409 -0.884823 3.003808
v -0.537409 0.884823 3.003808
v 0.537409 -0.884823 3.098668
v 0.537409 0.884823 3.098668
v 0.537409 -0.884823 3.003808
v 0.537409 0.884823 3.003808
v 0.410924 -1.000000 3.003808
v -0.410924 -1.000000 3.003808
v -0.410924 1.000000 3.003808
v 0.410924 1.000000 3.003808
v -0.410924 -1.000000 3.098668
v 0.410924 -1.000000 3.098668
v 0.410924 1.000000 3.098668
v -0.410924 1.000000 3.098668
v -0.537409 0.289392 3.098668
v -0.537409 0.289392 3.003808
v 0.537409 0.289392 3.003808
v 0.537409 0.289392 3.098668
v 0.410924 0.327062 3.098668
v -0.410924 0.327062 3.098668
v -0.410924 0.327062 3.003808
v 0.410924 0.327062 3.003808
v -0.537409 0.617007 3.098668
v -0.537409 0.617007 3.003808
v 0.537409 0.617007 3.003808
v 0.537409 0.617007 3.098668
v 0.410924 0.697322 3.098668
v -0.410924 0.697322 3.098668
v -0.410924 0.697322 3.003808
v 0.410924 0.697322 3.003808
v -0.197560 -1.000000 3.003808
v -0.197560 1.000000 3.003808
v -0.197560 -1.000000 3.098668
v -0.197560 1.000000 3.098668
v -0.197560 0.327062 3.003808
v -0.197560 0.327062 3.098668
v -0.197560 0.697322 3.003808
v -0.197560 0.697322 3.098668
v 0.106682 1.000000 3.003808
v 0.106682 -1.000000 3.098668
v 0.106682 0.327062 3.003808
v 0.106682 0.697322 3.003808
v 0.106682 -1.000000 3.003808
v 0.106682 1.000000 3.098668
v 0.106682 0.327062 3.098668
v 0.106682 0.697322 3.098668
vn -1.0000 0.0000 0.0000
vn 0.0000 0.0000 -1.0000
vn 1.0000 0.0000 0.0000
vn -0.0000 0.0000 1.0000
vn 0.6733 -0.7394 0.0000
vn -0.6733 0.7394 0.0000
vn 0.6733 0.7394 0.0000
vn 0.0000 1.0000 0.0000
vn -0.6733 -0.7394 0.0000
vn 0.0000 -1.0000 0.0000
usemtl Material.002
s off
f 185//19 162//19 164//19 186//19
f 192//20 172//20 168//20 187//20
f 187//21 168//21 166//21 188//21
f 190//22 176//22 162//22 185//22
f 169//23 167//23 165//23 174//23
f 171//24 164//24 162//24 176//24
f 168//25 172//25 175//25 166//25
f 194//26 171//26 176//26 196//26
f 163//27 170//27 173//27 161//27
f 205//28 169//28 174//28 202//28
f 188//22 166//22 175//22 189//22
f 200//22 196//22 176//22 190//22
f 186//20 164//20 171//20 191//20
f 204//20 201//20 172//20 192//20
f 205//20 203//20 184//20 169//20
f 163//20 178//20 183//20 170//20
f 195//22 198//22 182//22 173//22
f 165//22 180//22 181//22 174//22
f 173//22 182//22 177//22 161//22
f 167//21 179//21 180//21 165//21
f 169//20 184//20 179//20 167//20
f 161//19 177//19 178//19 163//19
f 203//20 204//20 192//20 184//20
f 178//20 186//20 191//20 183//20
f 198//22 200//22 190//22 182//22
f 180//22 188//22 189//22 181//22
f 182//22 190//22 185//22 177//22
f 179//21 187//21 188//21 180//21
f 184//20 192//20 187//20 179//20
f 177//19 185//19 186//19 178//19
f 183//20 191//20 199//20 197//20
f 202//22 207//22 198//22 195//22
f 170//20 183//20 197//20 193//20
f 191//20 171//20 194//20 199//20
f 208//22 206//22 196//22 200//22
f 170//28 193//28 195//28 173//28
f 201//26 194//26 196//26 206//26
f 172//26 201//26 206//26 175//26
f 189//22 175//22 206//22 208//22
f 174//22 181//22 207//22 202//22
f 181//22 189//22 208//22 207//22
f 193//20 197//20 203//20 205//20
f 199//20 194//20 201//20 204//20
f 193//28 205//28 202//28 195//28
f 198//21 197//21 199//21 200//21
f 207//26 203//26 197//26 198//26
f 207//19 208//19 204//19 203//19
f 208//28 200//28 199//28 204//28
